<?xml version="1.0" encoding="UTF-8" standalone="no"?><svg xmlns="http://www.w3.org/2000/svg" xmlns:xlink="http://www.w3.org/1999/xlink" contentStyleType="text/css" height="199px" preserveAspectRatio="none" style="width:139px;height:199px;background:#FFFFFF;" version="1.1" viewBox="0 0 139 199" width="139px" zoomAndPan="magnify"><defs/><g><!--MD5=[229a7444482a2bbe16a6b01b795e509f]
class HashNode--><g id="elem_HashNode"><rect codeLine="1" fill="#F1F1F1" height="178.375" id="HashNode" rx="2.5" ry="2.5" style="stroke:#181818;stroke-width:0.5;" width="118" x="7" y="7"/><ellipse cx="28.3" cy="23" fill="#ADD1B2" rx="11" ry="11" style="stroke:#181818;stroke-width:1.0;"/><path d="M31.2688,28.6406 Q30.6906,28.9375 30.05,29.0781 Q29.4094,29.2344 28.7063,29.2344 Q26.2063,29.2344 24.8781,27.5938 Q23.5656,25.9375 23.5656,22.8125 Q23.5656,19.6875 24.8781,18.0313 Q26.2063,16.375 28.7063,16.375 Q29.4094,16.375 30.05,16.5313 Q30.7063,16.6875 31.2688,16.9844 L31.2688,19.7031 Q30.6438,19.125 30.05,18.8594 Q29.4563,18.5781 28.8313,18.5781 Q27.4875,18.5781 26.8,19.6563 Q26.1125,20.7188 26.1125,22.8125 Q26.1125,24.9063 26.8,25.9844 Q27.4875,27.0469 28.8313,27.0469 Q29.4563,27.0469 30.05,26.7813 Q30.6438,26.5 31.2688,25.9219 L31.2688,28.6406 Z " fill="#000000"/><text fill="#000000" font-family="sans-serif" font-size="14" lengthAdjust="spacing" textLength="72" x="43.7" y="27.8467">HashNode</text><line style="stroke:#181818;stroke-width:0.5;" x1="8" x2="124" y1="39" y2="39"/><text fill="#000000" font-family="sans-serif" font-size="14" lengthAdjust="spacing" textLength="77" x="13" y="55.9951">Integer key</text><text fill="#000000" font-family="sans-serif" font-size="14" lengthAdjust="spacing" textLength="80" x="13" y="72.292">String value</text><text fill="#000000" font-family="sans-serif" font-size="14" lengthAdjust="spacing" textLength="106" x="13" y="88.5889">HashNode next</text><line style="stroke:#181818;stroke-width:0.5;" x1="8" x2="124" y1="95.8906" y2="95.8906"/><text fill="#000000" font-family="sans-serif" font-size="14" lengthAdjust="spacing" textLength="38" x="13" y="112.8857">size()</text><text fill="#000000" font-family="sans-serif" font-size="14" lengthAdjust="spacing" textLength="73" x="13" y="129.1826">isEmphty()</text><text fill="#000000" font-family="sans-serif" font-size="14" lengthAdjust="spacing" textLength="33" x="13" y="145.4795">get()</text><text fill="#000000" font-family="sans-serif" font-size="14" lengthAdjust="spacing" textLength="33" x="13" y="161.7764">put()</text><text fill="#000000" font-family="sans-serif" font-size="14" lengthAdjust="spacing" textLength="62" x="13" y="178.0732">remove()</text></g><!--MD5=[a44905dba2731ce0d28bd14b5c17cf43]
@startuml
class HashNode {
 Integer key
 String value
 HashNode next
 
 size()
 isEmphty()
 get()
 put()
 remove()
}
@enduml

PlantUML version 1.2022.7(Mon Aug 22 19:01:30 CEST 2022)
(GPL source distribution)
Java Runtime: OpenJDK Runtime Environment
JVM: OpenJDK 64-Bit Server VM
Default Encoding: UTF-8
Language: en
Country: US
--></g></svg>